<svg width="1707" height="1664" viewBox="0 0 1707 1664" fill="none" xmlns="http://www.w3.org/2000/svg">
<path d="M202.8 21.0667L192 42.6667L198.933 46.6667C202.8 48.8 253.067 77.6 310.667 110.533L415.333 170.4L415.067 187.467C414.667 208.4 411.867 228.933 406.667 250.4C390.133 318.133 349.6 372.4 287.733 409.867L277.467 416.133L169.733 354.533C110.533 320.667 60.1333 291.867 57.7333 290.4L53.4666 287.867L48 298.533L42.6666 309.333L48.6666 326.133C71.4666 388.667 106.533 445.2 145.733 482.267C208.267 541.333 290.667 572.133 396 575.467C424.267 576.4 430.533 577.6 446.267 586C476.8 602.133 515.867 632.667 574.667 686C606.133 714.533 621.733 729.6 670.8 778.4L714.4 821.6L800 736L885.733 650.533L839.733 604.267C716.4 480.267 644.133 396.933 617.6 348C609.467 332.933 608.4 327.067 607.467 295.333C605.6 229.733 596.8 184.667 578.533 145.467C560.667 107.333 530 74.4001 492.267 53.0667C434.667 20.4001 356.4 3.7334 245.067 0.533386L213.6 -0.399963L202.8 21.0667Z" fill="#E37E21"/>
<path d="M1440.67 127.467C1382.8 168 1334.53 202.533 1333.6 204.267C1332.67 206 1327.47 225.6 1321.87 248L1311.87 288.533L1002.53 597.6L693.333 906.667L650.667 880L608 853.333L586.667 874.667C565.867 895.467 565.333 896.267 565.333 901.733C565.333 909.867 563.067 924.533 560 936.267C547.6 984.533 506.533 1030.67 449.867 1059.6C422.133 1073.87 391.867 1083.73 365.6 1086.93L351.867 1088.67L175.733 1264.67L-0.400024 1440.53L0.533309 1452C4.13331 1500.27 31.7333 1552.4 76.1333 1595.33C114.4 1632.27 156.267 1654.8 200.667 1662C207.333 1663.07 215.333 1664 218.533 1664H224.4L400.267 1488.13C562.933 1325.2 576 1311.87 576 1307.73C576 1293.33 583.333 1263.33 592.267 1240.67C620.133 1170.53 670.933 1119.07 727.6 1104C733.333 1102.4 744.933 1100.53 753.6 1099.6L769.067 1098.13L790 1077.33L810.933 1056.4L784.133 1013.6L757.333 970.667L1065.33 662.8C1234.8 493.6 1374.27 354.267 1375.33 353.333C1376.4 352.4 1396 347.067 1418.8 341.333C1441.6 335.6 1461.07 330.133 1462 329.067C1462.93 328.133 1496.8 280.133 1537.2 222.4L1610.53 117.467L1582.8 89.7333C1567.47 74.5332 1552.93 60.1333 1550.53 57.8666L1546 53.6L1440.67 127.467Z" fill="#E37E21"/>
<path d="M927.6 864.267L842.4 949.733L900.4 1007.87C982.267 1090.13 1022.53 1132.53 1063.33 1180C1107.6 1231.47 1135.33 1271.87 1139.87 1292C1140.53 1295.33 1141.47 1310.53 1142 1326C1144.53 1423.07 1164.13 1484 1207.07 1528.93C1226.27 1549.07 1244.53 1562.4 1270.67 1575.33C1327.33 1603.6 1400.27 1617.73 1504.27 1620.8L1535.73 1621.73L1546.53 1600.27L1557.33 1578.67L1550.4 1574.67C1546.53 1572.53 1496.27 1543.73 1438.67 1510.8L1334 1450.93L1334.27 1434.53C1335.87 1340.27 1381.33 1259.87 1460.27 1212.27L1471.87 1205.2L1579.6 1266.8C1638.8 1300.67 1689.2 1329.47 1691.6 1330.93L1695.87 1333.47L1701.2 1322.8L1706.53 1312.27L1702.8 1301.07C1693.47 1273.6 1676.4 1236.93 1660.93 1211.33C1605.87 1120.13 1523.2 1066.93 1411.33 1050.8C1389.87 1047.73 1359.87 1045.33 1340.93 1045.33C1320.67 1045.33 1306.4 1039.73 1278 1020.93C1232.8 990.8 1174.67 938.667 1068 832.4C1038.27 802.933 1013.6 778.667 1013.33 778.8C1012.93 778.8 974.4 817.333 927.6 864.267Z" fill="#E37E21"/>
</svg>
